<svg xmlns="http://www.w3.org/2000/svg" xlink="http://www.w3.org/1999/xlink"
                                    width="14px" height="20px">
                                    <path fill-rule="evenodd" fill="rgb(204, 204, 204)"
                                        d="M6.999,10.000 C5.340,10.000 4.000,11.340 4.000,13.000 C4.000,14.660 5.340,16.000 6.999,16.000 C8.659,16.000 10.001,14.660 10.001,13.000 C10.001,11.340 8.659,10.000 6.999,10.000 ZM6.999,18.000 C4.239,18.000 2.000,15.760 2.000,13.000 C2.000,10.240 4.239,8.000 6.999,8.000 C9.759,8.000 12.000,10.240 12.000,13.000 C12.000,15.760 9.759,18.000 6.999,18.000 ZM6.999,2.000 C8.100,2.000 9.000,2.900 9.000,4.000 C9.000,5.100 8.100,6.000 6.999,6.000 C5.889,6.000 4.999,5.100 4.999,4.000 C4.999,2.900 5.889,2.000 6.999,2.000 ZM12.000,0.000 L2.000,0.000 C0.900,0.000 -0.001,0.900 -0.001,2.000 L-0.001,18.000 C-0.001,19.100 0.900,19.990 2.000,19.990 L12.000,20.000 C13.100,20.000 13.999,19.100 13.999,18.000 L13.999,2.000 C13.999,0.900 13.100,0.000 12.000,0.000 Z" />
                                </svg>