 <svg xmlns="http://www.w3.org/2000/svg" xlink="http://www.w3.org/1999/xlink"
                                    width="16px" height="24px">
                                    <path fill-rule="evenodd" fill="rgb(181, 181, 181)"
                                        d="M2.000,12.000 C2.000,8.690 4.690,6.000 7.998,6.000 C11.309,6.000 13.999,8.690 13.999,12.000 C13.999,15.310 11.309,18.000 7.998,18.000 C4.690,18.000 2.000,15.310 2.000,12.000 ZM16.000,12.000 C16.000,9.460 14.810,7.190 12.959,5.730 L12.000,0.000 L4.000,0.000 L3.050,5.730 C1.189,7.190 -0.001,9.450 -0.001,12.000 C-0.001,14.550 1.189,16.810 3.050,18.270 L4.000,24.000 L12.000,24.000 L12.959,18.270 C14.810,16.810 16.000,14.540 16.000,12.000 Z" />
                                </svg>