 <svg xmlns="http://www.w3.org/2000/svg" xlink="http://www.w3.org/1999/xlink"
                                    width="13px" height="22px">
                                    <path fill-rule="evenodd" fill="rgb(204, 204, 204)"
                                        d="M11.000,17.000 L2.000,17.000 L2.000,3.000 L11.000,3.000 L11.000,17.000 ZM6.500,21.000 C5.669,21.000 5.000,20.330 5.000,19.500 C5.000,18.670 5.669,18.000 6.500,18.000 C7.330,18.000 8.000,18.670 8.000,19.500 C8.000,20.330 7.330,21.000 6.500,21.000 ZM10.499,0.000 L2.499,0.000 C1.119,0.000 0.002,1.120 0.002,2.500 L0.002,19.500 C0.002,20.880 1.119,22.000 2.499,22.000 L10.499,22.000 C11.879,22.000 12.999,20.880 12.999,19.500 L12.999,2.500 C12.999,1.120 11.879,0.000 10.499,0.000 Z" />
                                </svg>