 <svg xmlns="http://www.w3.org/2000/svg" xlink="http://www.w3.org/1999/xlink"
                                    width="22px" height="20px">
                                    <path fill-rule="evenodd" fill="rgb(204, 204, 204)"
                                        d="M20.000,14.000 L1.999,14.000 L1.999,2.000 L20.000,2.000 L20.000,14.000 ZM20.000,0.000 L1.999,0.000 C0.899,0.000 -0.001,0.900 -0.001,2.000 L-0.001,14.000 C-0.001,15.100 0.899,16.000 1.999,16.000 L9.000,16.000 L9.000,18.000 L7.000,18.000 L7.000,20.000 L15.000,20.000 L15.000,18.000 L13.001,18.000 L13.001,16.000 L20.000,16.000 C21.100,16.000 21.999,15.100 21.999,14.000 L21.999,2.000 C21.999,0.900 21.100,0.000 20.000,0.000 Z" />
                                </svg>