 <svg xmlns="http://www.w3.org/2000/svg" xlink="http://www.w3.org/1999/xlink"
                                    width="18px" height="18px">
                                    <path fill-rule="evenodd" fill="rgb(204, 204, 204)"
                                        d="M14.000,14.000 L4.000,14.000 L4.000,4.000 L14.000,4.000 L14.000,14.000 ZM18.000,8.000 L18.000,6.000 L15.999,6.000 L15.999,4.000 C15.999,2.900 15.100,2.000 14.000,2.000 L12.001,2.000 L12.001,0.000 L9.998,0.000 L9.998,2.000 L8.000,2.000 L8.000,0.000 L6.000,0.000 L6.000,2.000 L4.000,2.000 C2.900,2.000 1.999,2.900 1.999,4.000 L1.999,6.000 L0.001,6.000 L0.001,8.000 L1.999,8.000 L1.999,10.000 L0.001,10.000 L0.001,12.000 L1.999,12.000 L1.999,14.000 C1.999,15.100 2.900,16.000 4.000,16.000 L6.000,16.000 L6.000,18.000 L8.000,18.000 L8.000,16.000 L9.998,16.000 L9.998,18.000 L12.001,18.000 L12.001,16.000 L14.000,16.000 C15.100,16.000 15.999,15.100 15.999,14.000 L15.999,12.000 L18.000,12.000 L18.000,10.000 L15.999,10.000 L15.999,8.000 L18.000,8.000 ZM9.998,10.000 L8.000,10.000 L8.000,8.000 L9.998,8.000 L9.998,10.000 ZM12.001,6.000 L6.000,6.000 L6.000,12.000 L12.001,12.000 L12.001,6.000 Z" />
                                </svg>